M48
METRIC,LZ,000.000
;FILE_FORMAT=3:3
;TYPE=PLATED
;Layer: PTH_Through
;EasyEDA v6.5.46, 2026-03-23 01:32:24
;10
;Gerber Generator version 0.2
;Holesize 1 = 0.800 mm
T01C0.800
;Holesize 2 = 0.889 mm
T02C0.889
;Holesize 3 = 0.915 mm
T03C0.915
;Holesize 4 = 0.991 mm
T04C0.991
;Holesize 5 = 1.000 mm
T05C1.000
;Holesize 6 = 1.199 mm
T06C1.199
;Holesize 7 = 1.200 mm
T07C1.200
%
G05
G90
T01
X-032810Y-023566
X-027730Y-023566
X-032810Y-031313
X-027730Y-031313
X-032683Y-038806
X-027603Y-038806
X-017343Y-016200
X-012463Y-016200
T02
X042291Y-036703
X039751Y-036703
X042291Y-034163
X039751Y-034163
X042291Y-031623
X039751Y-031623
X042291Y-029083
X039751Y-029083
X042418Y008382
X042418Y010922
X042418Y013462
X042418Y016002
X003048Y-033528
X005588Y-033528
X008128Y-033528
X-008045Y-035123
X-008045Y-037663
X-008045Y-040203
X042247Y-015438
X042247Y-012898
X042247Y-010358
X042247Y-007818
X042247Y-005278
T03
X051391Y021138
X051562Y-043942
X034417Y006477
X042164Y-022479
X-001720Y-029281
X-001300Y-018415
X027813Y-034925
X-003175Y-040767
X008128Y-040640
X045211Y-025400
X045339Y-038735
X050673Y-022479
X-006731Y-004953
X-006858Y-011049
X-003937Y003048
X-003810Y-003302
X012700Y-004770
X012700Y-021590
X008730Y006279
X008763Y-002921
X027865Y-043180
X022733Y006279
T04
X-004362Y015804
X-004362Y013264
X-004362Y010724
X-000552Y015677
X-000552Y013137
X-000552Y010597
T05
X-025073Y-013914
X-032673Y-013914
X-010645Y-009977
X-018145Y-009977
X-011026Y-022677
X-018526Y-022677
X-033151Y-005278
X-028151Y-005278
T06
X-018205Y-003881
X-018205Y011359
X015958Y010470
X015958Y-004770
X-009823Y011232
X-009823Y-004008
T07
X-034155Y012593
X-027655Y012593
X-034155Y008093
X-027655Y008093
M30
