G04 Layer: TopSilkscreenLayer*
G04 EasyEDA v6.5.46, 2026-03-23 01:32:24*
G04 Gerber Generator version 0.2*
G04 Scale: 100 percent, Rotated: No, Reflected: No *
G04 Dimensions in millimeters *
G04 leading zeros omitted , absolute positions ,4 integer and 5 decimal *
%FSLAX45Y45*%
%MOMM*%

%ADD10C,0.1524*%
%ADD11C,0.2540*%
%ADD12C,0.2032*%
%ADD13C,0.2030*%
%ADD14C,0.2000*%
%ADD15C,0.3000*%
%ADD16C,0.4000*%
%ADD17C,0.0118*%

%LPD*%
D10*
X-2899978Y-628401D02*
G01*
X-2899978Y-737367D01*
X-2899978Y-628401D02*
G01*
X-2853242Y-628401D01*
X-2837748Y-633481D01*
X-2832414Y-638815D01*
X-2827334Y-649229D01*
X-2827334Y-659643D01*
X-2832414Y-670057D01*
X-2837748Y-675137D01*
X-2853242Y-680217D01*
X-2899978Y-680217D02*
G01*
X-2853242Y-680217D01*
X-2837748Y-685551D01*
X-2832414Y-690631D01*
X-2827334Y-701045D01*
X-2827334Y-716793D01*
X-2832414Y-727207D01*
X-2837748Y-732287D01*
X-2853242Y-737367D01*
X-2899978Y-737367D01*
X-2793044Y-628401D02*
G01*
X-2793044Y-706379D01*
X-2787710Y-721873D01*
X-2777296Y-732287D01*
X-2761802Y-737367D01*
X-2751388Y-737367D01*
X-2735894Y-732287D01*
X-2725480Y-721873D01*
X-2720146Y-706379D01*
X-2720146Y-628401D01*
X-2613212Y-628401D02*
G01*
X-2685856Y-737367D01*
X-2685856Y-628401D02*
G01*
X-2613212Y-628401D01*
X-2685856Y-737367D02*
G01*
X-2613212Y-737367D01*
X-2506278Y-628401D02*
G01*
X-2578922Y-737367D01*
X-2578922Y-628401D02*
G01*
X-2506278Y-628401D01*
X-2578922Y-737367D02*
G01*
X-2506278Y-737367D01*
X-2471988Y-628401D02*
G01*
X-2471988Y-737367D01*
X-2471988Y-628401D02*
G01*
X-2404424Y-628401D01*
X-2471988Y-680217D02*
G01*
X-2430332Y-680217D01*
X-2471988Y-737367D02*
G01*
X-2404424Y-737367D01*
X-2370134Y-628401D02*
G01*
X-2370134Y-737367D01*
X-2370134Y-628401D02*
G01*
X-2323398Y-628401D01*
X-2307650Y-633481D01*
X-2302570Y-638815D01*
X-2297236Y-649229D01*
X-2297236Y-659643D01*
X-2302570Y-670057D01*
X-2307650Y-675137D01*
X-2323398Y-680217D01*
X-2370134Y-680217D01*
X-2333558Y-680217D02*
G01*
X-2297236Y-737367D01*
X-2262946Y-649229D02*
G01*
X-2252532Y-643895D01*
X-2237038Y-628401D01*
X-2237038Y-737367D01*
X-3279724Y-1162817D02*
G01*
X-3279724Y-1266957D01*
X-3331794Y-1214887D02*
G01*
X-3227908Y-1214887D01*
X-1492069Y-1341125D02*
G01*
X-1486735Y-1351539D01*
X-1476321Y-1361953D01*
X-1466161Y-1367033D01*
X-1445333Y-1367033D01*
X-1434919Y-1361953D01*
X-1424505Y-1351539D01*
X-1419171Y-1341125D01*
X-1414091Y-1325377D01*
X-1414091Y-1299469D01*
X-1419171Y-1283975D01*
X-1424505Y-1273561D01*
X-1434919Y-1263147D01*
X-1445333Y-1258067D01*
X-1466161Y-1258067D01*
X-1476321Y-1263147D01*
X-1486735Y-1273561D01*
X-1492069Y-1283975D01*
X-1526359Y-1346205D02*
G01*
X-1536773Y-1351539D01*
X-1552267Y-1367033D01*
X-1552267Y-1258067D01*
X-1530169Y-2611125D02*
G01*
X-1524835Y-2621539D01*
X-1514421Y-2631953D01*
X-1504261Y-2637033D01*
X-1483433Y-2637033D01*
X-1473019Y-2631953D01*
X-1462605Y-2621539D01*
X-1457271Y-2611125D01*
X-1452191Y-2595377D01*
X-1452191Y-2569469D01*
X-1457271Y-2553975D01*
X-1462605Y-2543561D01*
X-1473019Y-2533147D01*
X-1483433Y-2528067D01*
X-1504261Y-2528067D01*
X-1514421Y-2533147D01*
X-1524835Y-2543561D01*
X-1530169Y-2553975D01*
X-1569539Y-2611125D02*
G01*
X-1569539Y-2616205D01*
X-1574873Y-2626619D01*
X-1579953Y-2631953D01*
X-1590367Y-2637033D01*
X-1611195Y-2637033D01*
X-1621609Y-2631953D01*
X-1626689Y-2626619D01*
X-1632023Y-2616205D01*
X-1632023Y-2605791D01*
X-1626689Y-2595377D01*
X-1616275Y-2579883D01*
X-1564459Y-2528067D01*
X-1637103Y-2528067D01*
X-2987126Y-286009D02*
G01*
X-2992460Y-275595D01*
X-3002874Y-265181D01*
X-3013034Y-260101D01*
X-3033862Y-260101D01*
X-3044276Y-265181D01*
X-3054690Y-275595D01*
X-3060024Y-286009D01*
X-3065104Y-301757D01*
X-3065104Y-327665D01*
X-3060024Y-343159D01*
X-3054690Y-353573D01*
X-3044276Y-363987D01*
X-3033862Y-369067D01*
X-3013034Y-369067D01*
X-3002874Y-363987D01*
X-2992460Y-353573D01*
X-2987126Y-343159D01*
X-2901020Y-260101D02*
G01*
X-2952836Y-332745D01*
X-2874858Y-332745D01*
X-2901020Y-260101D02*
G01*
X-2901020Y-369067D01*
X-2949013Y-2064009D02*
G01*
X-2954347Y-2053595D01*
X-2964761Y-2043181D01*
X-2974921Y-2038101D01*
X-2995749Y-2038101D01*
X-3006163Y-2043181D01*
X-3016577Y-2053595D01*
X-3021911Y-2064009D01*
X-3026991Y-2079757D01*
X-3026991Y-2105665D01*
X-3021911Y-2121159D01*
X-3016577Y-2131573D01*
X-3006163Y-2141987D01*
X-2995749Y-2147067D01*
X-2974921Y-2147067D01*
X-2964761Y-2141987D01*
X-2954347Y-2131573D01*
X-2949013Y-2121159D01*
X-2852493Y-2053595D02*
G01*
X-2857573Y-2043181D01*
X-2873321Y-2038101D01*
X-2883481Y-2038101D01*
X-2899229Y-2043181D01*
X-2909643Y-2058929D01*
X-2914723Y-2084837D01*
X-2914723Y-2110745D01*
X-2909643Y-2131573D01*
X-2899229Y-2141987D01*
X-2883481Y-2147067D01*
X-2878401Y-2147067D01*
X-2862907Y-2141987D01*
X-2852493Y-2131573D01*
X-2847159Y-2116079D01*
X-2847159Y-2110745D01*
X-2852493Y-2095251D01*
X-2862907Y-2084837D01*
X-2878401Y-2079757D01*
X-2883481Y-2079757D01*
X-2899229Y-2084837D01*
X-2909643Y-2095251D01*
X-2914723Y-2110745D01*
X-2949013Y-2838709D02*
G01*
X-2954347Y-2828295D01*
X-2964761Y-2817881D01*
X-2974921Y-2812801D01*
X-2995749Y-2812801D01*
X-3006163Y-2817881D01*
X-3016577Y-2828295D01*
X-3021911Y-2838709D01*
X-3026991Y-2854457D01*
X-3026991Y-2880365D01*
X-3021911Y-2895859D01*
X-3016577Y-2906273D01*
X-3006163Y-2916687D01*
X-2995749Y-2921767D01*
X-2974921Y-2921767D01*
X-2964761Y-2916687D01*
X-2954347Y-2906273D01*
X-2949013Y-2895859D01*
X-2842079Y-2812801D02*
G01*
X-2893895Y-2921767D01*
X-2914723Y-2812801D02*
G01*
X-2842079Y-2812801D01*
X-2936313Y-3588009D02*
G01*
X-2941647Y-3577595D01*
X-2952061Y-3567181D01*
X-2962221Y-3562101D01*
X-2983049Y-3562101D01*
X-2993463Y-3567181D01*
X-3003877Y-3577595D01*
X-3009211Y-3588009D01*
X-3014291Y-3603757D01*
X-3014291Y-3629665D01*
X-3009211Y-3645159D01*
X-3003877Y-3655573D01*
X-2993463Y-3665987D01*
X-2983049Y-3671067D01*
X-2962221Y-3671067D01*
X-2952061Y-3665987D01*
X-2941647Y-3655573D01*
X-2936313Y-3645159D01*
X-2876115Y-3562101D02*
G01*
X-2891609Y-3567181D01*
X-2896943Y-3577595D01*
X-2896943Y-3588009D01*
X-2891609Y-3598423D01*
X-2881195Y-3603757D01*
X-2860621Y-3608837D01*
X-2844873Y-3613917D01*
X-2834459Y-3624331D01*
X-2829379Y-3634745D01*
X-2829379Y-3650493D01*
X-2834459Y-3660907D01*
X-2839793Y-3665987D01*
X-2855287Y-3671067D01*
X-2876115Y-3671067D01*
X-2891609Y-3665987D01*
X-2896943Y-3660907D01*
X-2902023Y-3650493D01*
X-2902023Y-3634745D01*
X-2896943Y-3624331D01*
X-2886529Y-3613917D01*
X-2870781Y-3608837D01*
X-2850207Y-3603757D01*
X-2839793Y-3598423D01*
X-2834459Y-3588009D01*
X-2834459Y-3577595D01*
X-2839793Y-3567181D01*
X-2855287Y-3562101D01*
X-2876115Y-3562101D01*
X-1441907Y-1274909D02*
G01*
X-1447241Y-1264495D01*
X-1457655Y-1254081D01*
X-1467815Y-1249001D01*
X-1488643Y-1249001D01*
X-1499057Y-1254081D01*
X-1509471Y-1264495D01*
X-1514805Y-1274909D01*
X-1519885Y-1290657D01*
X-1519885Y-1316565D01*
X-1514805Y-1332059D01*
X-1509471Y-1342473D01*
X-1499057Y-1352887D01*
X-1488643Y-1357967D01*
X-1467815Y-1357967D01*
X-1457655Y-1352887D01*
X-1447241Y-1342473D01*
X-1441907Y-1332059D01*
X-1407617Y-1249001D02*
G01*
X-1407617Y-1357967D01*
X-1407617Y-1249001D02*
G01*
X-1360881Y-1249001D01*
X-1345387Y-1254081D01*
X-1340053Y-1259415D01*
X-1334973Y-1269829D01*
X-1334973Y-1280243D01*
X-1340053Y-1290657D01*
X-1345387Y-1295737D01*
X-1360881Y-1300817D01*
X-1407617Y-1300817D01*
X-1371295Y-1300817D02*
G01*
X-1334973Y-1357967D01*
X-1300683Y-1249001D02*
G01*
X-1259027Y-1300817D01*
X-1259027Y-1357967D01*
X-1217625Y-1249001D02*
G01*
X-1259027Y-1300817D01*
X-1110437Y-1264495D02*
G01*
X-1120851Y-1254081D01*
X-1136345Y-1249001D01*
X-1157173Y-1249001D01*
X-1172921Y-1254081D01*
X-1183335Y-1264495D01*
X-1183335Y-1274909D01*
X-1178001Y-1285323D01*
X-1172921Y-1290657D01*
X-1162507Y-1295737D01*
X-1131265Y-1306151D01*
X-1120851Y-1311231D01*
X-1115771Y-1316565D01*
X-1110437Y-1326979D01*
X-1110437Y-1342473D01*
X-1120851Y-1352887D01*
X-1136345Y-1357967D01*
X-1157173Y-1357967D01*
X-1172921Y-1352887D01*
X-1183335Y-1342473D01*
X-1039825Y-1249001D02*
G01*
X-1039825Y-1357967D01*
X-1076147Y-1249001D02*
G01*
X-1003503Y-1249001D01*
X-927557Y-1249001D02*
G01*
X-969213Y-1357967D01*
X-927557Y-1249001D02*
G01*
X-886155Y-1357967D01*
X-953465Y-1321645D02*
G01*
X-901649Y-1321645D01*
X-851865Y-1249001D02*
G01*
X-851865Y-1357967D01*
X-851865Y-1357967D02*
G01*
X-789381Y-1357967D01*
X-755091Y-1269829D02*
G01*
X-744677Y-1264495D01*
X-729183Y-1249001D01*
X-729183Y-1357967D01*
X-168475Y1351782D02*
G01*
X-277441Y1351782D01*
X-168475Y1279138D02*
G01*
X-277441Y1279138D01*
X-220291Y1351782D02*
G01*
X-220291Y1279138D01*
X-189303Y1244848D02*
G01*
X-183969Y1234434D01*
X-168475Y1218686D01*
X-277441Y1218686D01*
X212524Y1339082D02*
G01*
X103558Y1339082D01*
X212524Y1266438D02*
G01*
X103558Y1266438D01*
X160708Y1339082D02*
G01*
X160708Y1266438D01*
X186616Y1226814D02*
G01*
X191696Y1226814D01*
X202110Y1221734D01*
X207444Y1216400D01*
X212524Y1205986D01*
X212524Y1185412D01*
X207444Y1174998D01*
X202110Y1169664D01*
X191696Y1164584D01*
X181282Y1164584D01*
X170868Y1169664D01*
X155374Y1180078D01*
X103558Y1232148D01*
X103558Y1159250D01*
X3758184Y-1905000D02*
G01*
X3867150Y-1905000D01*
X3758184Y-1832356D02*
G01*
X3867150Y-1832356D01*
X3810000Y-1905000D02*
G01*
X3810000Y-1832356D01*
X3758184Y-1787652D02*
G01*
X3758184Y-1730502D01*
X3799840Y-1761490D01*
X3799840Y-1745996D01*
X3804920Y-1735581D01*
X3810000Y-1730502D01*
X3825748Y-1725168D01*
X3836162Y-1725168D01*
X3851656Y-1730502D01*
X3862070Y-1740915D01*
X3867150Y-1756410D01*
X3867150Y-1771904D01*
X3862070Y-1787652D01*
X3856990Y-1792731D01*
X3846576Y-1798065D01*
X3974084Y1245869D02*
G01*
X4057142Y1245869D01*
X4072890Y1240535D01*
X4077970Y1235455D01*
X4083050Y1225042D01*
X4083050Y1214627D01*
X4077970Y1204213D01*
X4072890Y1198879D01*
X4057142Y1193800D01*
X4046728Y1193800D01*
X3994912Y1280159D02*
G01*
X3989578Y1290319D01*
X3974084Y1306068D01*
X4083050Y1306068D01*
X532130Y-3620515D02*
G01*
X532130Y-3537457D01*
X537464Y-3521710D01*
X542544Y-3516630D01*
X552958Y-3511550D01*
X563372Y-3511550D01*
X573786Y-3516630D01*
X579120Y-3521710D01*
X584200Y-3537457D01*
X584200Y-3547872D01*
X492760Y-3594607D02*
G01*
X492760Y-3599688D01*
X487680Y-3610102D01*
X482346Y-3615436D01*
X471932Y-3620515D01*
X451104Y-3620515D01*
X440690Y-3615436D01*
X435610Y-3610102D01*
X430530Y-3599688D01*
X430530Y-3589273D01*
X435610Y-3578860D01*
X446024Y-3563365D01*
X497840Y-3511550D01*
X425196Y-3511550D01*
X-1377007Y-2329947D02*
G01*
X-1293949Y-2329947D01*
X-1278201Y-2335281D01*
X-1273121Y-2340361D01*
X-1268041Y-2350775D01*
X-1268041Y-2361189D01*
X-1273121Y-2371603D01*
X-1278201Y-2376937D01*
X-1293949Y-2382017D01*
X-1304363Y-2382017D01*
X-1377007Y-2285497D02*
G01*
X-1377007Y-2228347D01*
X-1335351Y-2259335D01*
X-1335351Y-2243841D01*
X-1330271Y-2233427D01*
X-1325191Y-2228347D01*
X-1309443Y-2223013D01*
X-1299029Y-2223013D01*
X-1283535Y-2228347D01*
X-1273121Y-2238507D01*
X-1268041Y-2254255D01*
X-1268041Y-2269749D01*
X-1273121Y-2285497D01*
X-1278201Y-2290577D01*
X-1288615Y-2295657D01*
X4492424Y-1062487D02*
G01*
X4409366Y-1062487D01*
X4393618Y-1057153D01*
X4388538Y-1052073D01*
X4383458Y-1041659D01*
X4383458Y-1031245D01*
X4388538Y-1020831D01*
X4393618Y-1015497D01*
X4409366Y-1010417D01*
X4419780Y-1010417D01*
X4492424Y-1148593D02*
G01*
X4419780Y-1096777D01*
X4419780Y-1174501D01*
X4492424Y-1148593D02*
G01*
X4383458Y-1148593D01*
X-2215207Y373882D02*
G01*
X-2106241Y373882D01*
X-2215207Y373882D02*
G01*
X-2215207Y420618D01*
X-2210127Y436112D01*
X-2204793Y441446D01*
X-2194379Y446526D01*
X-2183965Y446526D01*
X-2173551Y441446D01*
X-2168471Y436112D01*
X-2163391Y420618D01*
X-2163391Y373882D01*
X-2163391Y410204D02*
G01*
X-2106241Y446526D01*
X-2194379Y480816D02*
G01*
X-2199713Y491230D01*
X-2215207Y506978D01*
X-2106241Y506978D01*
X1990524Y284982D02*
G01*
X1881558Y284982D01*
X1990524Y284982D02*
G01*
X1990524Y238246D01*
X1985444Y222752D01*
X1980110Y217418D01*
X1969696Y212338D01*
X1959282Y212338D01*
X1948868Y217418D01*
X1943788Y222752D01*
X1938708Y238246D01*
X1938708Y284982D01*
X1938708Y248660D02*
G01*
X1881558Y212338D01*
X1964616Y172714D02*
G01*
X1969696Y172714D01*
X1980110Y167634D01*
X1985444Y162300D01*
X1990524Y151886D01*
X1990524Y131312D01*
X1985444Y120898D01*
X1980110Y115564D01*
X1969696Y110484D01*
X1959282Y110484D01*
X1948868Y115564D01*
X1933374Y125978D01*
X1881558Y178048D01*
X1881558Y105150D01*
X-587575Y361182D02*
G01*
X-696541Y361182D01*
X-587575Y361182D02*
G01*
X-587575Y314446D01*
X-592655Y298952D01*
X-597989Y293618D01*
X-608403Y288538D01*
X-618817Y288538D01*
X-629231Y293618D01*
X-634311Y298952D01*
X-639391Y314446D01*
X-639391Y361182D01*
X-639391Y324860D02*
G01*
X-696541Y288538D01*
X-587575Y243834D02*
G01*
X-587575Y186684D01*
X-629231Y217672D01*
X-629231Y202178D01*
X-634311Y191764D01*
X-639391Y186684D01*
X-655139Y181350D01*
X-665553Y181350D01*
X-681047Y186684D01*
X-691461Y197098D01*
X-696541Y212592D01*
X-696541Y228086D01*
X-691461Y243834D01*
X-686381Y248914D01*
X-675967Y254248D01*
X385391Y-283966D02*
G01*
X385391Y-361944D01*
X390471Y-377438D01*
X400885Y-387852D01*
X416633Y-392932D01*
X427047Y-392932D01*
X442541Y-387852D01*
X452955Y-377438D01*
X458035Y-361944D01*
X458035Y-283966D01*
X492325Y-304794D02*
G01*
X502739Y-299460D01*
X518487Y-283966D01*
X518487Y-392932D01*
X-3115891Y1505198D02*
G01*
X-3115891Y1427220D01*
X-3110811Y1411726D01*
X-3100397Y1401312D01*
X-3084649Y1396232D01*
X-3074235Y1396232D01*
X-3058741Y1401312D01*
X-3048327Y1411726D01*
X-3043247Y1427220D01*
X-3043247Y1505198D01*
X-3003623Y1479290D02*
G01*
X-3003623Y1484370D01*
X-2998543Y1494784D01*
X-2993209Y1500118D01*
X-2982795Y1505198D01*
X-2962221Y1505198D01*
X-2951807Y1500118D01*
X-2946473Y1494784D01*
X-2941393Y1484370D01*
X-2941393Y1473956D01*
X-2946473Y1463542D01*
X-2956887Y1448048D01*
X-3008957Y1396232D01*
X-2936059Y1396232D01*
D11*
X-979492Y-1207716D02*
G01*
X-1899490Y-1207716D01*
X-979492Y-787717D02*
G01*
X-1899490Y-787717D01*
X-979492Y-1207716D02*
G01*
X-979492Y-1072222D01*
X-979492Y-923211D02*
G01*
X-979492Y-787717D01*
X-1899490Y-1207716D02*
G01*
X-1899490Y-1072222D01*
X-1899490Y-923211D02*
G01*
X-1899490Y-787717D01*
X-1017592Y-2477716D02*
G01*
X-1937590Y-2477716D01*
X-1017592Y-2057717D02*
G01*
X-1937590Y-2057717D01*
X-1017592Y-2477716D02*
G01*
X-1017592Y-2342222D01*
X-1017592Y-2193211D02*
G01*
X-1017592Y-2057717D01*
X-1937590Y-2477716D02*
G01*
X-1937590Y-2342222D01*
X-1937590Y-2193211D02*
G01*
X-1937590Y-2057717D01*
X-3315103Y-402813D02*
G01*
X-2815104Y-402816D01*
X-2815104Y-654817D02*
G01*
X-3315103Y-654817D01*
X-2815104Y-402816D02*
G01*
X-2815104Y-426217D01*
X-2815104Y-654817D02*
G01*
X-2815104Y-629417D01*
X-3315103Y-402813D02*
G01*
X-3315103Y-426217D01*
X-3315103Y-654817D02*
G01*
X-3315103Y-629417D01*
X-3280991Y-2263503D02*
G01*
X-3280991Y-2197618D01*
X-2773992Y-2197618D01*
X-2772991Y-2449730D02*
G01*
X-2772991Y-2515615D01*
X-3280991Y-2515615D01*
X-3280991Y-2449730D01*
X-2772991Y-2197618D02*
G01*
X-2772991Y-2263503D01*
X-3179391Y-2356617D02*
G01*
X-3077791Y-2356617D01*
X-3077791Y-2255017D01*
X-3077791Y-2356617D02*
G01*
X-3077791Y-2458217D01*
X-2874591Y-2356617D02*
G01*
X-2976191Y-2356617D01*
X-2976191Y-2255017D02*
G01*
X-2976191Y-2458217D01*
X-3280991Y-3038203D02*
G01*
X-3280991Y-2972318D01*
X-2773992Y-2972318D01*
X-2772991Y-3224430D02*
G01*
X-2772991Y-3290315D01*
X-3280991Y-3290315D01*
X-3280991Y-3224430D01*
X-2772991Y-2972318D02*
G01*
X-2772991Y-3038203D01*
X-3179391Y-3131317D02*
G01*
X-3077791Y-3131317D01*
X-3077791Y-3029717D01*
X-3077791Y-3131317D02*
G01*
X-3077791Y-3232917D01*
X-2874591Y-3131317D02*
G01*
X-2976191Y-3131317D01*
X-2976191Y-3029717D02*
G01*
X-2976191Y-3232917D01*
X-3268291Y-3787503D02*
G01*
X-3268291Y-3721618D01*
X-2761292Y-3721618D01*
X-2760291Y-3973730D02*
G01*
X-2760291Y-4039615D01*
X-3268291Y-4039615D01*
X-3268291Y-3973730D01*
X-2760291Y-3721618D02*
G01*
X-2760291Y-3787503D01*
X-3166691Y-3880617D02*
G01*
X-3065091Y-3880617D01*
X-3065091Y-3779017D01*
X-3065091Y-3880617D02*
G01*
X-3065091Y-3982217D01*
X-2861891Y-3880617D02*
G01*
X-2963491Y-3880617D01*
X-2963491Y-3779017D02*
G01*
X-2963491Y-3982217D01*
X-1811091Y-1847959D02*
G01*
X-1236113Y-1847959D01*
X-1212491Y-1847959D01*
X-1190645Y-1847959D01*
X-1811091Y-1396166D02*
G01*
X-1196047Y-1396166D01*
X-1174280Y-1396166D01*
X-309191Y1707382D02*
G01*
X-309191Y1453382D01*
X-563191Y1453382D01*
X-563191Y1707382D01*
X-309191Y1707382D01*
X-309191Y1453382D02*
G01*
X-309191Y1199382D01*
X-563191Y1199382D01*
X-563191Y1453382D01*
X-309191Y1453382D01*
X-309191Y1199382D02*
G01*
X-309191Y945382D01*
X-563191Y945382D01*
X-563191Y1199382D01*
X-309191Y1199382D01*
X71808Y1694682D02*
G01*
X71808Y1440682D01*
X-182191Y1440682D01*
X-182191Y1694682D01*
X71808Y1694682D01*
X71808Y1440682D02*
G01*
X71808Y1186682D01*
X-182191Y1186682D01*
X-182191Y1440682D01*
X71808Y1440682D01*
X71808Y1186682D02*
G01*
X71808Y932682D01*
X-182191Y932682D01*
X-182191Y1186682D01*
X71808Y1186682D01*
D12*
X3848100Y-3797300D02*
G01*
X4356100Y-3797300D01*
X4356100Y-2781300D01*
X3848100Y-2781300D01*
X3848100Y-3797300D01*
X4114800Y1727200D02*
G01*
X4368800Y1727200D01*
X4368800Y711200D01*
X4114800Y711200D01*
X4114800Y901700D01*
D13*
X4114800Y1727200D02*
G01*
X4114800Y901700D01*
D12*
X749300Y-3479800D02*
G01*
X939800Y-3479800D01*
X939800Y-3225800D01*
X177800Y-3225800D01*
X177800Y-3479800D01*
D13*
X177800Y-3479800D02*
G01*
X749300Y-3479800D01*
D12*
X-931491Y-3956817D02*
G01*
X-931491Y-4147317D01*
X-677491Y-4147317D01*
X-677491Y-3385317D01*
X-931491Y-3385317D01*
D13*
X-931491Y-3385317D02*
G01*
X-931491Y-3956817D01*
D12*
X4351708Y-591317D02*
G01*
X4351708Y-400817D01*
X4097708Y-400817D01*
X4097708Y-1670817D01*
X4351708Y-1670817D01*
D13*
X4351708Y-1670817D02*
G01*
X4351708Y-591317D01*
D11*
X-1594431Y-200157D02*
G01*
X-2046551Y-200157D01*
X-2046551Y-200157D02*
G01*
X-2046551Y947922D01*
X-2046551Y947922D02*
G01*
X-1594431Y947922D01*
X-1594431Y947922D02*
G01*
X-1594431Y-200157D01*
X1369748Y859022D02*
G01*
X1821868Y859022D01*
X1821868Y859022D02*
G01*
X1821868Y-289057D01*
X1821868Y-289057D02*
G01*
X1369748Y-289057D01*
X1369748Y-289057D02*
G01*
X1369748Y859022D01*
X-1208351Y935222D02*
G01*
X-756231Y935222D01*
X-756231Y935222D02*
G01*
X-756231Y-212857D01*
X-756231Y-212857D02*
G01*
X-1208351Y-212857D01*
X-1208351Y-212857D02*
G01*
X-1208351Y935222D01*
D14*
X554400Y-550499D02*
G01*
X554400Y-1100500D01*
X4399Y-1100500D01*
X4399Y-550499D01*
X554400Y-550499D01*
D11*
X-3330902Y1334282D02*
G01*
X-2850080Y1334282D01*
X-2790492Y1148974D02*
G01*
X-2790492Y919591D01*
X-2850080Y734283D02*
G01*
X-3330902Y734283D01*
X-3390491Y919591D02*
G01*
X-3390491Y1148974D01*
G75*
G01*
X-1811091Y-1396164D02*
G03*
X-1811094Y-1847855I756J-225846D01*
G75*
G01*
X-1191544Y-1847858D02*
G03*
X-1175217Y-1396101I7453J225904D01*
D15*
G75*
G01*
X-133096Y-480568D02*
G03*
X-133096Y-480822I-14999J-127D01*
D16*
G75*
G01*
X96774Y-623062D02*
G03*
X96774Y-623316I-20000J-127D01*
D11*
G75*
G01
X-2760292Y-1391417D02*
G03X-2760292Y-1391417I-127000J0D01*
G75*
G01
X-2287293Y-1391417D02*
G03X-2287293Y-1391417I-599999J0D01*
G75*
G01
X-2910482Y1034283D02*
G03X-2910482Y1034283I-180010J0D01*
G75*
G01
X-2865752Y1214267D02*
G03X-2865752Y1214267I-44729J0D01*
G75*
G01
X-3225772Y1214293D02*
G03X-3225772Y1214293I-44729J0D01*
G75*
G01
X-3225772Y854273D02*
G03X-3225772Y854273I-44729J0D01*
G75*
G01
X-2865752Y854273D02*
G03X-2865752Y854273I-44729J0D01*
M02*
