G04 Layer: TopLayer*
G04 EasyEDA v6.5.46, 2026-03-23 01:32:24*
G04 Gerber Generator version 0.2*
G04 Scale: 100 percent, Rotated: No, Reflected: No *
G04 Dimensions in millimeters *
G04 leading zeros omitted , absolute positions ,4 integer and 5 decimal *
%FSLAX45Y45*%
%MOMM*%

%ADD10C,0.2032*%
%ADD11C,0.2500*%
%ADD12C,0.5000*%
%ADD13C,0.5400*%
%ADD14C,0.2200*%
%ADD15O,1.7999964X0.2800096*%
%ADD16O,0.0009906X0.0009906*%
%ADD17O,1.7999964X0.24000459999999998*%
%ADD18O,0.2800096X1.7999964*%
%ADD19O,0.24000459999999998X1.7999964*%
%ADD20C,1.8000*%
%ADD21C,1.6000*%
%ADD22C,1.4000*%
%ADD23C,1.5000*%
%ADD24R,2.0320X2.1000*%
%ADD25R,1.5748X1.5748*%
%ADD26C,1.5748*%
%ADD27C,1.8796*%
%ADD28C,1.5240*%
%ADD29C,0.0135*%

%LPD*%
D10*
X5168828Y1640077D02*
G01*
X5242742Y1446276D01*
X5316656Y1640077D02*
G01*
X5242742Y1446276D01*
X5516300Y1593850D02*
G01*
X5506902Y1612392D01*
X5488360Y1630934D01*
X5470072Y1640077D01*
X5432988Y1640077D01*
X5414700Y1630934D01*
X5396158Y1612392D01*
X5386760Y1593850D01*
X5377616Y1566163D01*
X5377616Y1520189D01*
X5386760Y1492250D01*
X5396158Y1473961D01*
X5414700Y1455419D01*
X5432988Y1446276D01*
X5470072Y1446276D01*
X5488360Y1455419D01*
X5506902Y1473961D01*
X5516300Y1492250D01*
X5715690Y1593850D02*
G01*
X5706546Y1612392D01*
X5688004Y1630934D01*
X5669462Y1640077D01*
X5632632Y1640077D01*
X5614090Y1630934D01*
X5595548Y1612392D01*
X5586404Y1593850D01*
X5577260Y1566163D01*
X5577260Y1520189D01*
X5586404Y1492250D01*
X5595548Y1473961D01*
X5614090Y1455419D01*
X5632632Y1446276D01*
X5669462Y1446276D01*
X5688004Y1455419D01*
X5706546Y1473961D01*
X5715690Y1492250D01*
X5485312Y-3968750D02*
G01*
X5475914Y-3950207D01*
X5457626Y-3931665D01*
X5439084Y-3922522D01*
X5402000Y-3922522D01*
X5383712Y-3931665D01*
X5365170Y-3950207D01*
X5356026Y-3968750D01*
X5346628Y-3996436D01*
X5346628Y-4042410D01*
X5356026Y-4070350D01*
X5365170Y-4088638D01*
X5383712Y-4107180D01*
X5402000Y-4116323D01*
X5439084Y-4116323D01*
X5457626Y-4107180D01*
X5475914Y-4088638D01*
X5485312Y-4070350D01*
X5485312Y-4042410D01*
X5439084Y-4042410D02*
G01*
X5485312Y-4042410D01*
X5546272Y-3922522D02*
G01*
X5546272Y-4116323D01*
X5546272Y-3922522D02*
G01*
X5675558Y-4116323D01*
X5675558Y-3922522D02*
G01*
X5675558Y-4116323D01*
X5736518Y-3922522D02*
G01*
X5736518Y-4116323D01*
X5736518Y-3922522D02*
G01*
X5801034Y-3922522D01*
X5828720Y-3931665D01*
X5847262Y-3950207D01*
X5856660Y-3968750D01*
X5865804Y-3996436D01*
X5865804Y-4042410D01*
X5856660Y-4070350D01*
X5847262Y-4088638D01*
X5828720Y-4107180D01*
X5801034Y-4116323D01*
X5736518Y-4116323D01*
X-2998287Y2012950D02*
G01*
X-3007685Y2031492D01*
X-3025973Y2050034D01*
X-3044515Y2059177D01*
X-3081599Y2059177D01*
X-3099887Y2050034D01*
X-3118429Y2031492D01*
X-3127573Y2012950D01*
X-3136971Y1985263D01*
X-3136971Y1939289D01*
X-3127573Y1911350D01*
X-3118429Y1893061D01*
X-3099887Y1874519D01*
X-3081599Y1865376D01*
X-3044515Y1865376D01*
X-3025973Y1874519D01*
X-3007685Y1893061D01*
X-2998287Y1911350D01*
X-2998287Y1939289D01*
X-3044515Y1939289D02*
G01*
X-2998287Y1939289D01*
X-2937327Y2059177D02*
G01*
X-2937327Y1865376D01*
X-2937327Y2059177D02*
G01*
X-2854269Y2059177D01*
X-2826583Y2050034D01*
X-2817439Y2040889D01*
X-2808041Y2022347D01*
X-2808041Y2003805D01*
X-2817439Y1985263D01*
X-2826583Y1976119D01*
X-2854269Y1966976D01*
X-2937327Y1966976D01*
X-2872811Y1966976D02*
G01*
X-2808041Y1865376D01*
X-2691709Y2059177D02*
G01*
X-2710251Y2050034D01*
X-2728539Y2031492D01*
X-2737937Y2012950D01*
X-2747081Y1985263D01*
X-2747081Y1939289D01*
X-2737937Y1911350D01*
X-2728539Y1893061D01*
X-2710251Y1874519D01*
X-2691709Y1865376D01*
X-2654879Y1865376D01*
X-2636337Y1874519D01*
X-2617795Y1893061D01*
X-2608651Y1911350D01*
X-2599253Y1939289D01*
X-2599253Y1985263D01*
X-2608651Y2012950D01*
X-2617795Y2031492D01*
X-2636337Y2050034D01*
X-2654879Y2059177D01*
X-2691709Y2059177D01*
X-2538293Y2059177D02*
G01*
X-2538293Y1920747D01*
X-2529149Y1893061D01*
X-2510607Y1874519D01*
X-2482921Y1865376D01*
X-2464379Y1865376D01*
X-2436693Y1874519D01*
X-2418405Y1893061D01*
X-2409007Y1920747D01*
X-2409007Y2059177D01*
X-2348047Y2059177D02*
G01*
X-2348047Y1865376D01*
X-2348047Y2059177D02*
G01*
X-2264989Y2059177D01*
X-2237303Y2050034D01*
X-2228159Y2040889D01*
X-2218761Y2022347D01*
X-2218761Y1994661D01*
X-2228159Y1976119D01*
X-2237303Y1966976D01*
X-2264989Y1957577D01*
X-2348047Y1957577D01*
X-2015561Y2022347D02*
G01*
X-1997019Y2031492D01*
X-1969333Y2059177D01*
X-1969333Y1865376D01*
X-1788485Y1994661D02*
G01*
X-1797629Y1966976D01*
X-1816171Y1948434D01*
X-1843857Y1939289D01*
X-1853001Y1939289D01*
X-1880687Y1948434D01*
X-1899229Y1966976D01*
X-1908373Y1994661D01*
X-1908373Y2003805D01*
X-1899229Y2031492D01*
X-1880687Y2050034D01*
X-1853001Y2059177D01*
X-1843857Y2059177D01*
X-1816171Y2050034D01*
X-1797629Y2031492D01*
X-1788485Y1994661D01*
X-1788485Y1948434D01*
X-1797629Y1902205D01*
X-1816171Y1874519D01*
X-1843857Y1865376D01*
X-1862399Y1865376D01*
X-1890085Y1874519D01*
X-1899229Y1893061D01*
D11*
X-172018Y-2928117D02*
G01*
X-127000Y-2928117D01*
D12*
X-3263899Y-3886200D02*
G01*
X-3263899Y-4394200D01*
X5160591Y-4399782D01*
X2786466Y-4398210D02*
G01*
X2786466Y-4318000D01*
X4229100Y-3416300D02*
G01*
X4737026Y-3425705D01*
X4741491Y-1498600D01*
X4737026Y-3425705D02*
G01*
X4737026Y-4064005D01*
X808408Y-4064005D01*
X808408Y-3372617D01*
X4717214Y-4393951D02*
G01*
X5092626Y-4018539D01*
X5067300Y-2247900D01*
X4229100Y-3670300D02*
G01*
X4229100Y-3898900D01*
X4572000Y-3898900D01*
X4229100Y-3416300D02*
G01*
X4229100Y-2908300D01*
X4237408Y627882D02*
G01*
X3441700Y627882D01*
X-55191Y1313682D02*
G01*
X1329108Y1313682D01*
X1595808Y1046982D01*
X-436191Y1580382D02*
G01*
X-1439491Y1580382D01*
X-1820491Y1199382D01*
X-1820491Y1135882D01*
X-436191Y1326382D02*
G01*
X-779091Y1326382D01*
X-982291Y1123182D01*
X873000Y627882D02*
G01*
X2273300Y627882D01*
X-1820491Y1135882D02*
G01*
X-1820491Y488182D01*
X-1642691Y310382D01*
X-393700Y304800D01*
X-2765498Y1259276D02*
G01*
X-2379291Y1259276D01*
X-2379291Y-92029D01*
X-2815079Y-527817D01*
X-3415484Y809289D02*
G01*
X-3415484Y-427410D01*
X-3315078Y-527817D01*
X-3280991Y-2356617D02*
G01*
X-3763591Y-2356617D01*
X-3763591Y-976330D01*
X-3315078Y-527817D01*
X-3315078Y-527817D02*
G01*
X-3315078Y-583620D01*
X-2507282Y-1391417D01*
X-2507282Y-1391417D02*
G01*
X-2315791Y-1391417D01*
X-2315791Y-1804522D01*
X-1852597Y-2267717D01*
X-3267275Y-1391417D02*
G01*
X-3267275Y-1405133D01*
X-2925391Y-1747017D01*
X-2531691Y-1747017D01*
X-2531691Y-2382017D01*
X-1985591Y-2928117D01*
X-172018Y-2928117D01*
X-3280991Y-2356617D02*
G01*
X-3280991Y-3867917D01*
X-3268291Y-3880617D01*
X-2772991Y-2356617D02*
G01*
X-2772991Y-3867917D01*
X-2760291Y-3880617D01*
X-2760291Y-3880617D02*
G01*
X-1871291Y-3880617D01*
X-1744291Y-3753617D01*
X-817191Y-3753617D01*
X-804491Y-3766317D01*
X-804491Y-4020317D02*
G01*
X-804491Y-4414017D01*
X300408Y-3372617D02*
G01*
X300408Y-4388617D01*
X-804491Y-3766317D02*
G01*
X-317573Y-3766317D01*
X-317500Y-4114800D01*
X-1820491Y-388117D02*
G01*
X-1681982Y-388117D01*
X-1473200Y-596900D01*
X-774700Y-596900D01*
X-673100Y-495300D01*
X-2815079Y-527817D02*
G01*
X-1960191Y-527817D01*
X-1820491Y-388117D01*
D13*
X-55191Y1567682D02*
G01*
X-67891Y1580382D01*
X-436191Y1580382D01*
D12*
X-436191Y1072382D02*
G01*
X-423491Y1059682D01*
X-55191Y1059682D01*
X4224708Y-1543817D02*
G01*
X4740328Y-1548897D01*
X4737026Y1079494D01*
X4224708Y-1289817D02*
G01*
X4533900Y-1289817D01*
X4533900Y622300D01*
X4528317Y627882D01*
X4237408Y627882D01*
X4241800Y838200D02*
G01*
X4241800Y627882D01*
X-55191Y1059682D02*
G01*
X376608Y627882D01*
X873000Y627882D01*
X-982291Y-400817D02*
G01*
X-571573Y-241305D01*
X-571573Y-127005D01*
X-406473Y38094D01*
X-406473Y38094D02*
G01*
X-114300Y38094D01*
X152400Y-228600D01*
X-292100Y-546100D02*
G01*
X-381000Y-544911D01*
X-381000Y-330200D01*
D14*
X4396Y-420502D02*
G01*
X-5577Y-420502D01*
X-129989Y-544913D01*
D12*
X4237408Y1587494D02*
G01*
X2565326Y1587494D01*
X2565326Y165094D01*
X250116Y165094D01*
X254000Y-139700D01*
X342826Y-241305D02*
G01*
X609780Y25394D01*
X609600Y25400D02*
G01*
X2819326Y25394D01*
X2819326Y1346194D01*
X4237408Y1346194D01*
D14*
X684405Y-600511D02*
G01*
X870712Y-600511D01*
X876300Y-594926D01*
D12*
X876300Y-584200D02*
G01*
X876300Y-292100D01*
X1595808Y-477017D02*
G01*
X1270000Y-477017D01*
X1020498Y-800102D02*
G01*
X4224708Y-781817D01*
X1016000Y-1028700D02*
G01*
X4217588Y-1028697D01*
X4224708Y-1035817D01*
X-127000Y-1117600D02*
G01*
X-125600Y-1850075D01*
X-127000Y-1851157D01*
D14*
X-125602Y-1050493D02*
G01*
X-250393Y-1050493D01*
D12*
X554408Y-3372617D02*
G01*
X554408Y-2688008D01*
X330200Y-2463797D01*
X-139700Y-2463797D01*
X-419100Y-2184397D01*
X-419100Y-1371597D01*
X-419173Y-1371605D02*
G01*
X-317573Y-1270005D01*
X-1102586Y-2267717D02*
G01*
X-1102586Y-1763730D01*
X-1246299Y-1620017D01*
X-1734284Y-1620017D02*
G01*
X-1686786Y-1620017D01*
X-1064486Y-997717D01*
X-804491Y-3512317D02*
G01*
X-362719Y-3512317D01*
X152400Y-2997197D01*
X152400Y-2857497D01*
X-63500Y-2641597D01*
X-444500Y-2641597D01*
X-622300Y-2463797D01*
X-609600Y-1333497D01*
X-609600Y-1333497D02*
G01*
X-609600Y-1285331D01*
X-324779Y-1000511D01*
X-1246299Y-1620017D02*
G01*
X-1246299Y-1373296D01*
X-673514Y-800511D01*
D11*
X4396Y-420502D02*
G01*
X4396Y-537796D01*
X101600Y-634997D01*
X101600Y-927097D01*
X83789Y-944907D01*
X-129989Y-944907D01*
D12*
X622223Y-1511305D02*
G01*
X2184323Y-1511305D01*
X2311323Y-1638305D01*
X2311323Y-2540005D01*
X4521123Y-2540005D01*
X404395Y-1712495D02*
G01*
X571500Y-1879597D01*
X1866900Y-1879597D01*
X1866900Y-2895597D01*
X3962400Y-2895597D01*
X3975100Y-2908297D01*
X203200Y-1536697D02*
G01*
X203200Y-1879597D01*
X482600Y-2158997D01*
X1270000Y-2158997D01*
X4224708Y-1289817D02*
G01*
X3314626Y-1282705D01*
X3314626Y-2247905D01*
X4178226Y-2247905D01*
X5139108Y2113782D02*
G01*
X-55191Y2101082D01*
X4237408Y1079494D02*
G01*
X4737026Y1079494D01*
X4735248Y2113782D01*
D11*
X204396Y-420502D02*
G01*
X204396Y-280596D01*
X152400Y-228597D01*
X254406Y-420497D02*
G01*
X254406Y-84264D01*
X304396Y-420502D02*
G01*
X304396Y-279801D01*
X342900Y-241297D01*
X684403Y-850493D02*
G01*
X837793Y-850493D01*
X1016000Y-1028700D01*
X711200Y-800100D02*
G01*
X1047168Y-799597D01*
X454406Y-1230503D02*
G01*
X454406Y-1343487D01*
X622223Y-1511305D01*
X404393Y-1230503D02*
G01*
X404393Y-1727992D01*
X354406Y-1230503D02*
G01*
X354406Y-1385491D01*
X203200Y-1536697D01*
X-250517Y-1050549D02*
G01*
X-317573Y-1117605D01*
X-317573Y-1270005D01*
X-125600Y-1000511D02*
G01*
X-330200Y-1003300D01*
X-125600Y-850498D02*
G01*
X-418701Y-850498D01*
X-673100Y-1104897D01*
X-125602Y-800506D02*
G01*
X-698073Y-800506D01*
X-1064480Y-997717D02*
G01*
X-1035819Y-997717D01*
X-736600Y-698497D01*
X-279400Y-698497D01*
X-227401Y-750498D01*
X-125600Y-750498D01*
D14*
X-125600Y-550499D02*
G01*
X-286514Y-550499D01*
X-292100Y-544913D01*
D12*
X2781300Y-3492500D02*
G01*
X3454400Y-3492500D01*
X3454400Y-3683000D01*
X3975102Y-3670305D01*
X-55191Y2101082D02*
G01*
X-55191Y1567682D01*
X-2501900Y-1397000D02*
G01*
X-2335809Y-1397000D01*
X-1814497Y-997717D01*
D15*
G01*
X-125600Y-550499D03*
D16*
G01*
X-125600Y-600511D03*
G01*
X-125600Y-650499D03*
G01*
X-125600Y-700511D03*
D17*
G01*
X-125600Y-750498D03*
G01*
X-125600Y-800511D03*
G01*
X-125600Y-850498D03*
D16*
G01*
X-125600Y-900511D03*
D17*
G01*
X-125600Y-950498D03*
G01*
X-125600Y-1000511D03*
G01*
X-125600Y-1050498D03*
G01*
X-125600Y-1100510D03*
D18*
G01*
X4396Y-1230508D03*
D16*
G01*
X54409Y-1230508D03*
G01*
X104396Y-1230508D03*
G01*
X154409Y-1230508D03*
G01*
X204396Y-1230508D03*
G01*
X254408Y-1230508D03*
G01*
X304396Y-1230508D03*
D19*
G01*
X354408Y-1230508D03*
G01*
X404395Y-1230508D03*
G01*
X454408Y-1230508D03*
D16*
G01*
X504395Y-1230508D03*
D18*
G01*
X554408Y-1230508D03*
D15*
G01*
X684405Y-1100510D03*
D16*
G01*
X684405Y-1050498D03*
G01*
X684405Y-1000511D03*
G01*
X684405Y-950498D03*
G01*
X684405Y-900511D03*
D17*
G01*
X684405Y-850498D03*
G01*
X684405Y-800511D03*
D16*
G01*
X684405Y-750498D03*
G01*
X684405Y-700511D03*
G01*
X684405Y-650499D03*
D15*
G01*
X684405Y-600511D03*
D16*
G01*
X684405Y-550499D03*
D18*
G01*
X554408Y-420502D03*
D16*
G01*
X504395Y-420502D03*
G01*
X454408Y-420502D03*
G01*
X404395Y-420502D03*
G01*
X354408Y-420502D03*
D19*
G01*
X304396Y-420502D03*
G01*
X254408Y-420502D03*
G01*
X204396Y-420502D03*
D16*
G01*
X154409Y-420502D03*
G01*
X104396Y-420502D03*
G01*
X54409Y-420502D03*
D18*
G01*
X4396Y-420502D03*
D20*
G01*
X-2507282Y-1391417D03*
G01*
X-3267275Y-1391417D03*
G01*
X-1064486Y-997717D03*
G01*
X-1814497Y-997717D03*
G01*
X-1102586Y-2267717D03*
G01*
X-1852597Y-2267717D03*
D21*
G01*
X-3315078Y-527817D03*
G01*
X-2815079Y-527817D03*
D22*
G01*
X-3280991Y-2356617D03*
G01*
X-2772991Y-2356617D03*
G01*
X-3280991Y-3131317D03*
G01*
X-2772991Y-3131317D03*
G01*
X-3268291Y-3880617D03*
G01*
X-2760291Y-3880617D03*
D23*
G01*
X-1734284Y-1620017D03*
G01*
X-1246299Y-1620017D03*
D24*
G01*
X-436191Y1580382D03*
G01*
X-436191Y1326382D03*
G01*
X-436191Y1072382D03*
G01*
X-55191Y1567682D03*
G01*
X-55191Y1313682D03*
G01*
X-55191Y1059682D03*
D25*
G01*
X4229102Y-3670305D03*
D26*
G01*
X3975102Y-3670305D03*
G01*
X4229102Y-3416305D03*
G01*
X3975102Y-3416305D03*
G01*
X4229102Y-3162305D03*
G01*
X3975102Y-3162305D03*
G01*
X4229102Y-2908305D03*
G01*
X3975102Y-2908305D03*
D25*
G01*
X4241802Y838194D03*
D26*
G01*
X4241802Y1092194D03*
G01*
X4241802Y1346194D03*
G01*
X4241802Y1600194D03*
G01*
X304802Y-3352805D03*
G01*
X558802Y-3352805D03*
D25*
G01*
X812802Y-3352805D03*
D26*
G01*
X-804491Y-3512317D03*
G01*
X-804491Y-3766317D03*
D25*
G01*
X-804491Y-4020317D03*
D26*
G01*
X4224708Y-1543817D03*
G01*
X4224708Y-1289817D03*
G01*
X4224708Y-1035817D03*
G01*
X4224708Y-781817D03*
D25*
G01*
X4224708Y-527817D03*
D27*
G01*
X-1820491Y-388117D03*
G01*
X-1820491Y1135882D03*
G01*
X1595808Y1046982D03*
G01*
X1595808Y-477017D03*
G01*
X-982291Y1123182D03*
G01*
X-982291Y-400817D03*
D20*
G01*
X-3415484Y1259276D03*
G01*
X-2765498Y1259276D03*
G01*
X-3415484Y809289D03*
G01*
X-2765498Y809289D03*
D28*
G01*
X5139108Y2113782D03*
G01*
X5156202Y-4394205D03*
G01*
X3441702Y647694D03*
G01*
X4216402Y-2247905D03*
G01*
X-172006Y-2928117D03*
G01*
X-129994Y-1841505D03*
G01*
X2781302Y-3492505D03*
G01*
X-317497Y-4076705D03*
G01*
X812802Y-4064005D03*
G01*
X4521126Y-2540005D03*
G01*
X4533902Y-3873505D03*
G01*
X5067302Y-2247905D03*
G01*
X-673097Y-495305D03*
G01*
X-685797Y-1104905D03*
G01*
X-393697Y304794D03*
G01*
X-380997Y-330205D03*
G01*
X1270002Y-477017D03*
G01*
X1270002Y-2159005D03*
G01*
X873000Y627882D03*
G01*
X876302Y-292105D03*
G01*
X2786458Y-4318005D03*
G01*
X2273302Y627882D03*
M02*
