G04 Layer: TopPasteMaskLayer*
G04 EasyEDA v6.5.46, 2026-03-23 01:32:24*
G04 Gerber Generator version 0.2*
G04 Scale: 100 percent, Rotated: No, Reflected: No *
G04 Dimensions in millimeters *
G04 leading zeros omitted , absolute positions ,4 integer and 5 decimal *
%FSLAX45Y45*%
%MOMM*%

%ADD10O,1.7999964X0.2800096*%
%ADD11O,0.0009906X0.0009906*%
%ADD12O,1.7999964X0.24000459999999998*%
%ADD13O,0.2800096X1.7999964*%
%ADD14O,0.24000459999999998X1.7999964*%

%LPD*%
D10*
G01*
X-125600Y-550499D03*
D11*
G01*
X-125600Y-600511D03*
G01*
X-125600Y-650499D03*
G01*
X-125600Y-700511D03*
D12*
G01*
X-125600Y-750498D03*
G01*
X-125600Y-800511D03*
G01*
X-125600Y-850498D03*
D11*
G01*
X-125600Y-900511D03*
D12*
G01*
X-125600Y-950498D03*
G01*
X-125600Y-1000511D03*
G01*
X-125600Y-1050498D03*
G01*
X-125600Y-1100510D03*
D13*
G01*
X4396Y-1230508D03*
D11*
G01*
X54409Y-1230508D03*
G01*
X104396Y-1230508D03*
G01*
X154409Y-1230508D03*
G01*
X204396Y-1230508D03*
G01*
X254408Y-1230508D03*
G01*
X304396Y-1230508D03*
D14*
G01*
X354408Y-1230508D03*
G01*
X404395Y-1230508D03*
G01*
X454408Y-1230508D03*
D11*
G01*
X504395Y-1230508D03*
D13*
G01*
X554408Y-1230508D03*
D10*
G01*
X684405Y-1100510D03*
D11*
G01*
X684405Y-1050498D03*
G01*
X684405Y-1000511D03*
G01*
X684405Y-950498D03*
G01*
X684405Y-900511D03*
D12*
G01*
X684405Y-850498D03*
G01*
X684405Y-800511D03*
D11*
G01*
X684405Y-750498D03*
G01*
X684405Y-700511D03*
G01*
X684405Y-650499D03*
D10*
G01*
X684405Y-600511D03*
D11*
G01*
X684405Y-550499D03*
D13*
G01*
X554408Y-420502D03*
D11*
G01*
X504395Y-420502D03*
G01*
X454408Y-420502D03*
G01*
X404395Y-420502D03*
G01*
X354408Y-420502D03*
D14*
G01*
X304396Y-420502D03*
G01*
X254408Y-420502D03*
G01*
X204396Y-420502D03*
D11*
G01*
X154409Y-420502D03*
G01*
X104396Y-420502D03*
G01*
X54409Y-420502D03*
D13*
G01*
X4396Y-420502D03*
M02*
